<svg width="32" height="32" viewBox="0 0 24 24" fill="none" xmlns="http://www.w3.org/2000/svg">
<path d="M2 19C1.44772 19 1 19.4477 1 20C1 20.5523 1.44772 21 2 21V19ZM22 21C22.5523 21 23 20.5523 23 20C23 19.4477 22.5523 19 22 19V21ZM20 20V21C20.2652 21 20.5196 20.8946 20.7071 20.7071C20.8946 20.5196 21 20.2652 21 20H20ZM10.0615 11.9876L9.39322 11.2437L10.0615 11.9876ZM12.3615 9.92126L13.0298 10.6652L12.3615 9.92126ZM16.6387 9.92126L17.307 9.17738L16.6387 9.92126ZM18.9387 11.9876L18.2704 12.7315L18.9387 11.9876ZM13.9227 8.77368L14.2113 9.73113V9.73113L13.9227 8.77368ZM15.0771 8.77368L15.3658 7.81623L15.0771 8.77368ZM9.063 13.335L8.0945 13.0859L9.063 13.335ZM9.33496 12.725L8.50247 12.1709L9.33496 12.725ZM19.937 13.335L20.9055 13.0859L19.937 13.335ZM19.6649 12.725L20.4974 12.1709L19.6649 12.725ZM4 20H3C3 20.5523 3.44772 21 4 21V20ZM11 9.99995C11 10.5522 11.4477 11 12 11C12.5523 11 13 10.5522 13 9.99995H11ZM10.9078 4.21799L11.3618 3.32698V3.32698L10.9078 4.21799ZM11.7822 5.09204L10.8912 5.54603V5.54603L11.7822 5.09204ZM4.21799 5.09204L5.10899 5.54603L4.21799 5.09204ZM5.0918 4.21799L5.54579 5.10899L5.0918 4.21799ZM2 21H22V19H2V21ZM19 14.368V20H21V14.368H19ZM20 19L9 19L9 21L20 21V19ZM10 20V14.368H8V20H10ZM10.7298 12.7315L13.0298 10.6652L11.6932 9.17738L9.39322 11.2437L10.7298 12.7315ZM15.9704 10.6652L18.2704 12.7315L19.607 11.2437L17.307 9.17738L15.9704 10.6652ZM13.0298 10.6652C13.4195 10.3151 13.6696 10.0913 13.8739 9.93457C14.0684 9.78541 14.1597 9.74667 14.2113 9.73113L13.6341 7.81623C13.2583 7.92951 12.947 8.12497 12.6568 8.3476C12.3764 8.56266 12.0596 8.84823 11.6932 9.17738L13.0298 10.6652ZM17.307 9.17738C16.9405 8.84814 16.6237 8.56258 16.3431 8.34749C16.0527 8.12487 15.7414 7.92948 15.3658 7.81623L14.7885 9.73113C14.8402 9.7467 14.9317 9.78551 15.1262 9.93468C15.3306 10.0914 15.5808 10.3152 15.9704 10.6652L17.307 9.17738ZM14.2113 9.73113C14.3995 9.67439 14.6003 9.67439 14.7885 9.73113L15.3658 7.81623C14.8011 7.64602 14.1987 7.64602 13.6341 7.81623L14.2113 9.73113ZM10 14.368C10 13.7913 10.0074 13.6779 10.0315 13.584L8.0945 13.0859C7.99265 13.4821 8 13.8941 8 14.368H10ZM9.39322 11.2437C9.04074 11.5604 8.72911 11.8304 8.50247 12.1709L10.1675 13.279C10.2212 13.1983 10.3007 13.117 10.7298 12.7315L9.39322 11.2437ZM10.0315 13.584C10.0594 13.4753 10.1054 13.3723 10.1675 13.279L8.50247 12.1709C8.31607 12.451 8.17823 12.7603 8.0945 13.0859L10.0315 13.584ZM21 14.368C21 13.8941 21.0074 13.4821 20.9055 13.0859L18.9685 13.584C18.9927 13.6779 19 13.7912 19 14.368H21ZM18.2704 12.7315C18.6989 13.1165 18.7786 13.1981 18.8324 13.279L20.4974 12.1709C20.2708 11.8305 19.9601 11.5609 19.607 11.2437L18.2704 12.7315ZM20.9055 13.0859C20.8217 12.7598 20.6835 12.4506 20.4974 12.1709L18.8324 13.279C18.8947 13.3726 18.9407 13.4758 18.9685 13.584L20.9055 13.0859ZM9 19H4V21H9V19ZM5 20V7.19995H3V20H5ZM7.2002 5H8.8002V3H7.2002V5ZM11 7.19995V9.99995H13V7.19995H11ZM8.8002 5C9.37676 5 9.74892 5.00078 10.0321 5.02393C10.3036 5.04611 10.4043 5.08377 10.4538 5.10899L11.3618 3.32698C10.9835 3.13421 10.5904 3.06288 10.1951 3.03057C9.81146 2.99922 9.34374 3 8.8002 3V5ZM13 7.19995C13 6.6565 13.0008 6.1887 12.9696 5.80511C12.9373 5.40983 12.8661 5.01653 12.6732 4.63805L10.8912 5.54603C10.9164 5.59537 10.954 5.69598 10.9762 5.96767C10.9993 6.25105 11 6.6233 11 7.19995H13ZM10.4538 5.10899C10.6424 5.20508 10.7956 5.35828 10.8912 5.54603L12.6732 4.63805C12.3854 4.07315 11.9259 3.61439 11.3618 3.32698L10.4538 5.10899ZM5 7.19995C5 6.6234 5.00078 6.25114 5.02393 5.96783C5.04612 5.6962 5.0838 5.59549 5.10899 5.54603L3.32698 4.63805C3.13419 5.01642 3.06287 5.40961 3.03057 5.80495C2.99922 6.18861 3 6.6564 3 7.19995H5ZM7.2002 3C6.65663 3 6.18874 2.99922 5.80498 3.03057C5.40962 3.06286 5.01624 3.13416 4.63781 3.32698L5.54579 5.10899C5.59517 5.08383 5.69595 5.04613 5.9678 5.02393C6.25126 5.00078 6.62365 5 7.2002 5V3ZM5.10899 5.54603C5.205 5.35761 5.35788 5.20474 5.54579 5.10899L4.63781 3.32698C4.07306 3.61473 3.61447 4.07382 3.32698 4.63805L5.10899 5.54603Z" fill="#333333"/>
</svg>
