<svg width="32" height="32" viewBox="0 0 24 24" fill="none" xmlns="http://www.w3.org/2000/svg">
<path d="M13 9V10C13.5523 10 14 9.55228 14 9H13ZM4 3V2C3.44772 2 3 2.44772 3 3H4ZM13 4.59998H14H13ZM12.4544 3.10899L12.9084 2.21799L12.9084 2.21799L12.4544 3.10899ZM12.8906 3.54602L13.7816 3.09203V3.09203L12.8906 3.54602ZM18.4 15V16V15ZM20 10.6H21H20ZM20 13.4H19H20ZM19.4544 9.10899L19.9084 8.21799H19.9084L19.4544 9.10899ZM19.8906 9.54602L20.7816 9.09203L19.8906 9.54602ZM19.4544 14.891L19.9084 15.782L19.4544 14.891ZM19.8906 14.454L20.7816 14.908L19.8906 14.454ZM14.4 21V22V21ZM4 21H3C3 21.5523 3.44772 22 4 22V21ZM16 15H17C17 14.4477 16.5523 14 16 14V15ZM16 19.4H15H16ZM15.4544 20.891L15.9084 21.782L15.4544 20.891ZM15.8906 20.454L16.7816 20.908L15.8906 20.454ZM13 8H4V10H13V8ZM5 9V3H3V9H5ZM4 4H11.4V2H4V4ZM12 4.59998V9H14V4.59998H12ZM11.4 4C11.6965 4 11.8589 4.00078 11.9756 4.01031C12.0808 4.01889 12.058 4.02936 12.0004 4L12.9084 2.21799C12.6368 2.07963 12.3669 2.0356 12.1384 2.01694C11.9214 1.99922 11.6635 2 11.4 2V4ZM14 4.59998C14 4.33609 14.0007 4.07834 13.9828 3.86119C13.964 3.6324 13.9197 3.36304 13.7816 3.09203L11.9996 4.00001C11.9705 3.94291 11.9809 3.9205 11.9896 4.0252C11.9991 4.14154 12 4.30381 12 4.59998H14ZM12.0004 4L11.9996 4.00001L13.7816 3.09203C13.5907 2.71737 13.2864 2.41058 12.9084 2.21799L12.0004 4ZM18.4 14H4V16H18.4V14ZM5 15V9H3V15H5ZM4 10H18.4V8H4V10ZM19 10.6V13.4H21V10.6H19ZM18.4 10C18.6965 10 18.8589 10.0008 18.9756 10.0103C19.0808 10.0189 19.058 10.0294 19.0004 10L19.9084 8.21799C19.6368 8.07963 19.3669 8.0356 19.1384 8.01694C18.9214 7.99922 18.6635 8 18.4 8V10ZM21 10.6C21 10.3361 21.0007 10.0783 20.9828 9.86119C20.964 9.6324 20.9197 9.36304 20.7816 9.09203L18.9996 10C18.9705 9.94291 18.9809 9.9205 18.9896 10.0252C18.9991 10.1415 19 10.3038 19 10.6H21ZM19.0004 10L18.9996 10L20.7816 9.09203C20.5907 8.71737 20.2864 8.41058 19.9084 8.21799L19.0004 10ZM18.4 16C18.6636 16 18.9214 16.0008 19.1384 15.983C19.3669 15.9644 19.6369 15.9203 19.9084 15.782L19.0004 14C19.058 13.9706 19.0807 13.9811 18.9756 13.9897C18.8589 13.9992 18.6965 14 18.4 14V16ZM19 13.4C19 13.6961 18.9991 13.8584 18.9896 13.9748C18.9809 14.0796 18.9705 14.0571 18.9996 14L20.7816 14.908C20.9197 14.637 20.964 14.3676 20.9828 14.1388C21.0007 13.9216 21 13.6639 21 13.4H19ZM19.9084 15.782C20.2862 15.5895 20.5907 15.2828 20.7816 14.908L18.9996 14L19.0004 14L19.9084 15.782ZM14.4 20H4V22H14.4V20ZM5 21V15H3V21H5ZM4 16H16V14H4V16ZM15 15V19.4H17V15H15ZM14.4 22C14.6636 22 14.9214 22.0008 15.1384 21.983C15.3669 21.9644 15.6369 21.9203 15.9084 21.782L15.0004 20C15.058 19.9706 15.0807 19.9811 14.9756 19.9897C14.8589 19.9992 14.6965 20 14.4 20V22ZM15 19.4C15 19.6962 14.9991 19.8585 14.9896 19.9748C14.9809 20.0795 14.9705 20.0571 14.9996 20L16.7816 20.908C16.9197 20.637 16.964 20.3676 16.9828 20.1388C17.0007 19.9216 17 19.6639 17 19.4H15ZM15.9084 21.782C16.2862 21.5895 16.5907 21.2828 16.7816 20.908L14.9996 20L15.0004 20L15.9084 21.782Z" fill="#333333"/>
</svg>
