<svg width="32" height="32" viewBox="0 0 24 24" fill="none" xmlns="http://www.w3.org/2000/svg">
<path d="M11.2349 2.37392L11.6175 3.2978L11.2349 2.37392ZM8.73829 6.40126L7.81441 6.78395L8.73829 6.40126ZM8.73829 4.8705L9.66216 5.25318L8.73829 4.8705ZM11.2349 8.89787L11.6175 7.97399L11.2349 8.89787ZM15.2622 4.8705L14.3384 5.25318L15.2622 4.8705ZM4.87061 8.73793L5.25329 9.66181L4.87061 8.73793ZM2.37403 12.7653L1.45015 13.148L2.37403 12.7653ZM2.37403 11.2345L3.29791 11.6172L2.37403 11.2345ZM4.87061 15.2619L5.25329 14.338L4.87061 15.2619ZM8.89798 11.2345L7.9741 11.6172L8.89798 11.2345ZM17.5991 8.73793L17.9818 9.66181L17.5991 8.73793ZM15.1025 12.7653L14.1787 13.148L15.1025 12.7653ZM15.1025 11.2345L16.0264 11.6172L15.1025 11.2345ZM17.5991 15.2619L17.9818 14.338L17.5991 15.2619ZM21.6265 11.2345L20.7026 11.6172L21.6265 11.2345ZM11.2349 15.1019L11.6175 16.0258L11.2349 15.1019ZM8.73829 19.1293L7.81441 19.512L8.73829 19.1293ZM8.73829 17.5985L9.66216 17.9812L8.73829 17.5985ZM11.2349 21.6259L11.6175 20.702L11.2349 21.6259ZM15.2622 17.5985L14.3384 17.9812L15.2622 17.5985ZM10.586 4.22168C10.9252 3.88253 11.1445 3.66397 11.3235 3.50783C11.4957 3.35762 11.5759 3.31504 11.6175 3.2978L10.8522 1.45004C10.5263 1.58505 10.258 1.78332 10.0088 2.00063C9.76648 2.21203 9.4916 2.48767 9.1718 2.80747L10.586 4.22168ZM14.8287 2.80747C14.5089 2.48767 14.234 2.21203 13.9917 2.00063C13.7425 1.78332 13.4742 1.58504 13.1483 1.45004L12.3829 3.2978C12.4246 3.31504 12.5048 3.35762 12.677 3.50783C12.856 3.66397 13.0753 3.88253 13.4145 4.22168L14.8287 2.80747ZM11.6175 3.2978C11.8626 3.19631 12.1379 3.19631 12.3829 3.2978L13.1483 1.45004C12.4132 1.14556 11.5873 1.14556 10.8522 1.45004L11.6175 3.2978ZM10.586 7.05011C10.2469 6.71097 10.0283 6.49164 9.8722 6.31263C9.72198 6.14041 9.6794 6.06019 9.66216 6.01858L7.81441 6.78395C7.94941 7.10988 8.14769 7.37816 8.365 7.6273C8.57639 7.86965 8.85203 8.14453 9.17183 8.46432L10.586 7.05011ZM9.1718 2.80747C8.85201 3.12726 8.57637 3.40213 8.36498 3.64448C8.14767 3.89362 7.94941 4.16189 7.81441 4.48782L9.66216 5.25318C9.6794 5.21156 9.72198 5.13135 9.87219 4.95914C10.0283 4.78015 10.2469 4.56083 10.586 4.22168L9.1718 2.80747ZM9.66216 6.01858C9.56067 5.77355 9.56067 5.49821 9.66216 5.25318L7.81441 4.48782C7.50992 5.2229 7.50992 6.04886 7.81441 6.78395L9.66216 6.01858ZM13.4145 7.05011C13.0753 7.38926 12.856 7.60782 12.677 7.76396C12.5048 7.91418 12.4246 7.95676 12.3829 7.97399L13.1483 9.82175C13.4742 9.68675 13.7425 9.48847 13.9917 9.27116C14.234 9.05977 14.5089 8.78412 14.8287 8.46433L13.4145 7.05011ZM9.17183 8.46432C9.49162 8.78411 9.76649 9.05976 10.0088 9.27115C10.258 9.48846 10.5262 9.68674 10.8522 9.82175L11.6175 7.97399C11.5759 7.95676 11.4957 7.91419 11.3235 7.76397C11.1445 7.60783 10.9252 7.38927 10.586 7.05011L9.17183 8.46432ZM12.3829 7.97399C12.1379 8.07549 11.8626 8.07549 11.6175 7.97399L10.8522 9.82175C11.5873 10.1262 12.4132 10.1262 13.1483 9.82175L12.3829 7.97399ZM14.8287 8.46433C15.1485 8.14453 15.4241 7.86965 15.6355 7.6273C15.8528 7.37816 16.0511 7.10988 16.1861 6.78395L14.3384 6.01858C14.3211 6.06019 14.2785 6.14041 14.1283 6.31263C13.9722 6.49164 13.7536 6.71097 13.4145 7.05011L14.8287 8.46433ZM13.4145 4.22168C13.7536 4.56083 13.9722 4.78015 14.1283 4.95916C14.2786 5.13137 14.3211 5.21158 14.3384 5.25318L16.1861 4.48782C16.0511 4.16188 15.8528 3.89359 15.6355 3.64446C15.4241 3.40212 15.1485 3.12725 14.8287 2.80747L13.4145 4.22168ZM16.1861 6.78395C16.4906 6.04886 16.4906 5.2229 16.1861 4.48782L14.3384 5.25318C14.4399 5.49821 14.4399 5.77355 14.3384 6.01858L16.1861 6.78395ZM4.22176 10.5857C4.5609 10.2465 4.78023 10.028 4.95924 9.87185C5.13146 9.72163 5.21168 9.67905 5.25329 9.66181L4.48792 7.81405C4.16199 7.94906 3.89371 8.14734 3.64457 8.36465C3.40222 8.57604 3.12734 8.85168 2.80755 9.17148L4.22176 10.5857ZM8.46443 9.17148C8.14464 8.85168 7.86976 8.57604 7.62741 8.36465C7.37827 8.14734 7.10998 7.94906 6.78405 7.81405L6.01869 9.66181C6.0603 9.67905 6.14052 9.72163 6.31274 9.87185C6.49174 10.028 6.71107 10.2465 7.05022 10.5857L8.46443 9.17148ZM5.25329 9.66181C5.49832 9.56032 5.77366 9.56032 6.01869 9.66181L6.78405 7.81405C6.04897 7.50957 5.22301 7.50957 4.48792 7.81405L5.25329 9.66181ZM4.22179 13.4141C3.88264 13.075 3.66408 12.8557 3.50794 12.6766C3.35772 12.5044 3.31514 12.4242 3.29791 12.3826L1.45015 13.148C1.58515 13.4739 1.78343 13.7422 2.00074 13.9913C2.21213 14.2337 2.48778 14.5085 2.80757 14.8283L4.22179 13.4141ZM2.80755 9.17148C2.48775 9.49127 2.21211 9.76615 2.00073 10.0085C1.78342 10.2576 1.58515 10.5259 1.45015 10.8518L3.29791 11.6172C3.31515 11.5756 3.35772 11.4954 3.50793 11.3232C3.66406 11.1442 3.88261 10.9248 4.22176 10.5857L2.80755 9.17148ZM3.29791 12.3826C3.19641 12.1376 3.19641 11.8622 3.29791 11.6172L1.45015 10.8518C1.14567 11.5869 1.14567 12.4129 1.45015 13.148L3.29791 12.3826ZM7.05022 13.4141C6.71107 13.7533 6.49174 13.9718 6.31274 14.128C6.14052 14.2782 6.0603 14.3208 6.01869 14.338L6.78405 16.1858C7.10998 16.0508 7.37827 15.8525 7.62741 15.6352C7.86976 15.4238 8.14464 15.1481 8.46443 14.8283L7.05022 13.4141ZM2.80757 14.8283C3.12736 15.1481 3.40223 15.4238 3.64457 15.6352C3.8937 15.8525 4.16198 16.0508 4.48792 16.1858L5.25329 14.338C5.21169 14.3208 5.13148 14.2782 4.95926 14.128C4.78026 13.9718 4.56094 13.7533 4.22179 13.4141L2.80757 14.8283ZM6.01869 14.338C5.77366 14.4395 5.49832 14.4395 5.25329 14.338L4.48792 16.1858C5.22301 16.4902 6.04897 16.4902 6.78405 16.1858L6.01869 14.338ZM8.46443 14.8283C8.78423 14.5085 9.05987 14.2337 9.27127 13.9913C9.48858 13.7422 9.68686 13.4739 9.82186 13.148L7.9741 12.3826C7.95686 12.4242 7.91429 12.5044 7.76406 12.6766C7.60793 12.8557 7.38936 13.075 7.05022 13.4141L8.46443 14.8283ZM7.05022 10.5857C7.38937 10.9248 7.60793 11.1442 7.76408 11.3232C7.9143 11.4954 7.95687 11.5756 7.9741 11.6172L9.82186 10.8518C9.68685 10.5259 9.48856 10.2576 9.27125 10.0085C9.05986 9.76614 8.78422 9.49127 8.46443 9.17148L7.05022 10.5857ZM9.82186 13.148C10.1263 12.4129 10.1263 11.5869 9.82186 10.8518L7.9741 11.6172C8.07559 11.8622 8.07559 12.1376 7.9741 12.3826L9.82186 13.148ZM16.9503 10.5857C17.2894 10.2465 17.5087 10.028 17.6878 9.87185C17.86 9.72163 17.9402 9.67905 17.9818 9.66181L17.2164 7.81405C16.8905 7.94906 16.6222 8.14734 16.3731 8.36465C16.1307 8.57604 15.8559 8.85168 15.5361 9.17148L16.9503 10.5857ZM21.1929 9.17148C20.8732 8.85168 20.5983 8.57604 20.3559 8.36465C20.1068 8.14734 19.8385 7.94906 19.5126 7.81405L18.7472 9.66181C18.7888 9.67905 18.869 9.72163 19.0413 9.87185C19.2203 10.028 19.4396 10.2465 19.7787 10.5857L21.1929 9.17148ZM17.9818 9.66181C18.2268 9.56032 18.5022 9.56032 18.7472 9.66181L19.5126 7.81405C18.7775 7.50957 17.9515 7.50957 17.2164 7.81405L17.9818 9.66181ZM16.9503 13.4141C16.6112 13.075 16.3926 12.8557 16.2365 12.6766C16.0862 12.5044 16.0437 12.4242 16.0264 12.3826L14.1787 13.148C14.3137 13.4739 14.5119 13.7422 14.7293 13.9913C14.9406 14.2337 15.2163 14.5085 15.5361 14.8283L16.9503 13.4141ZM15.5361 9.17148C15.2163 9.49127 14.9406 9.76615 14.7292 10.0085C14.5119 10.2576 14.3137 10.5259 14.1787 10.8518L16.0264 11.6172C16.0437 11.5756 16.0862 11.4954 16.2364 11.3232C16.3926 11.1442 16.6111 10.9248 16.9503 10.5857L15.5361 9.17148ZM16.0264 12.3826C15.9249 12.1376 15.9249 11.8622 16.0264 11.6172L14.1787 10.8518C13.8742 11.5869 13.8742 12.4129 14.1787 13.148L16.0264 12.3826ZM19.7787 13.4141C19.4396 13.7533 19.2203 13.9718 19.0413 14.128C18.869 14.2782 18.7888 14.3208 18.7472 14.338L19.5126 16.1858C19.8385 16.0508 20.1068 15.8525 20.3559 15.6352C20.5983 15.4238 20.8732 15.1481 21.1929 14.8283L19.7787 13.4141ZM15.5361 14.8283C15.8559 15.1481 16.1307 15.4238 16.3731 15.6352C16.6222 15.8525 16.8905 16.0508 17.2164 16.1858L17.9818 14.338C17.9402 14.3208 17.86 14.2782 17.6878 14.128C17.5088 13.9718 17.2895 13.7533 16.9503 13.4141L15.5361 14.8283ZM18.7472 14.338C18.5022 14.4395 18.2268 14.4395 17.9818 14.338L17.2164 16.1858C17.9515 16.4902 18.7775 16.4902 19.5126 16.1858L18.7472 14.338ZM21.1929 14.8283C21.5127 14.5085 21.7884 14.2337 21.9998 13.9913C22.2171 13.7422 22.4154 13.4739 22.5504 13.148L20.7026 12.3826C20.6854 12.4242 20.6428 12.5044 20.4926 12.6766C20.3364 12.8557 20.1179 13.075 19.7787 13.4141L21.1929 14.8283ZM19.7787 10.5857C20.1179 10.9248 20.3365 11.1442 20.4926 11.3232C20.6428 11.4954 20.6854 11.5756 20.7026 11.6172L22.5504 10.8518C22.4154 10.5259 22.2171 10.2576 21.9998 10.0085C21.7884 9.76614 21.5127 9.49127 21.1929 9.17148L19.7787 10.5857ZM22.5504 13.148C22.8549 12.4129 22.8549 11.5869 22.5504 10.8518L20.7026 11.6172C20.8041 11.8622 20.8041 12.1376 20.7026 12.3826L22.5504 13.148ZM10.586 16.9497C10.9252 16.6106 11.1445 16.392 11.3235 16.2359C11.4957 16.0856 11.5759 16.0431 11.6175 16.0258L10.8522 14.1781C10.5263 14.3131 10.258 14.5113 10.0088 14.7287C9.76648 14.9401 9.4916 15.2157 9.1718 15.5355L10.586 16.9497ZM14.8287 15.5355C14.5089 15.2157 14.234 14.9401 13.9917 14.7287C13.7425 14.5113 13.4742 14.3131 13.1483 14.1781L12.3829 16.0258C12.4246 16.0431 12.5048 16.0856 12.677 16.2359C12.856 16.392 13.0753 16.6106 13.4145 16.9497L14.8287 15.5355ZM11.6175 16.0258C11.8626 15.9243 12.1379 15.9243 12.3829 16.0258L13.1483 14.1781C12.4132 13.8736 11.5873 13.8736 10.8522 14.1781L11.6175 16.0258ZM10.586 19.7781C10.2469 19.439 10.0283 19.2197 9.8722 19.0407C9.72198 18.8684 9.6794 18.7882 9.66216 18.7466L7.81441 19.512C7.94941 19.8379 8.14769 20.1062 8.365 20.3553C8.57639 20.5977 8.85204 20.8726 9.17183 21.1924L10.586 19.7781ZM9.1718 15.5355C8.85201 15.8553 8.57637 16.1302 8.36498 16.3725C8.14767 16.6216 7.94941 16.8899 7.81441 17.2158L9.66216 17.9812C9.6794 17.9396 9.72198 17.8594 9.87219 17.6872C10.0283 17.5082 10.2469 17.2889 10.586 16.9497L9.1718 15.5355ZM9.66216 18.7466C9.56067 18.5016 9.56067 18.2262 9.66216 17.9812L7.81441 17.2158C7.50992 17.9509 7.50992 18.7769 7.81441 19.512L9.66216 18.7466ZM13.4145 19.7781C13.0753 20.1173 12.856 20.3358 12.677 20.492C12.5048 20.6422 12.4246 20.6848 12.3829 20.702L13.1483 22.5498C13.4742 22.4148 13.7425 22.2165 13.9917 21.9992C14.234 21.7878 14.5089 21.5122 14.8287 21.1924L13.4145 19.7781ZM9.17183 21.1924C9.49162 21.5121 9.76649 21.7878 10.0088 21.9992C10.258 22.2165 10.5262 22.4148 10.8522 22.5498L11.6175 20.702C11.5759 20.6848 11.4957 20.6422 11.3235 20.492C11.1445 20.3359 10.9252 20.1173 10.586 19.7781L9.17183 21.1924ZM12.3829 20.702C12.1379 20.8035 11.8626 20.8035 11.6175 20.702L10.8522 22.5498C11.5873 22.8543 12.4132 22.8543 13.1483 22.5498L12.3829 20.702ZM14.8287 21.1924C15.1485 20.8726 15.4241 20.5977 15.6355 20.3553C15.8528 20.1062 16.0511 19.8379 16.1861 19.512L14.3384 18.7466C14.3211 18.7882 14.2785 18.8684 14.1283 19.0407C13.9722 19.2197 13.7536 19.439 13.4145 19.7781L14.8287 21.1924ZM13.4145 16.9497C13.7536 17.2889 13.9722 17.5082 14.1283 17.6872C14.2786 17.8594 14.3211 17.9396 14.3384 17.9812L16.1861 17.2158C16.0511 16.8899 15.8528 16.6216 15.6355 16.3725C15.4241 16.1302 15.1485 15.8553 14.8287 15.5355L13.4145 16.9497ZM16.1861 19.512C16.4906 18.7769 16.4906 17.9509 16.1861 17.2158L14.3384 17.9812C14.4399 18.2262 14.4399 18.5016 14.3384 18.7466L16.1861 19.512Z" fill="#333333"/>
</svg>
